Coordinates
version=1
nRows=6
nColumns=36
inDegrees=yes

Units are S.I. units (second, meters, Newtons, ...)
If the header above contains a line with 'inDegrees', this indicates whether rotational values are in degrees (yes) or radians (no).

endheader
time	pelvis_tilt	pelvis_list	pelvis_rotation	pelvis_tx	pelvis_ty	pelvis_tz	hip_flexion_r	hip_adduction_r	hip_rotation_r	knee_angle_r	knee_angle_r_beta	ankle_angle_r	subtalar_angle_r	mtp_angle_r	hip_flexion_l	hip_adduction_l	hip_rotation_l	knee_angle_l	knee_angle_l_beta	ankle_angle_l	subtalar_angle_l	mtp_angle_l	lumbar_extension	lumbar_bending	lumbar_rotation	arm_flex_r	arm_add_r	arm_rot_r	elbow_flex_r	pro_sup_r	arm_flex_l	arm_add_l	arm_rot_l	elbow_flex_l	pro_sup_l
      0.00000000	      3.21613614	      0.20613932	    -10.46813087	      1.01724946	      0.94603762	      0.37618741	     -3.53902741	      5.30067861	     -0.65186781	      8.96490794	      0.15646716	      9.39884138	     -1.48209307	     -6.30270334	     23.14027457	     -2.54053251	      4.90785271	     28.77294232	      0.50218258	      1.46986948	    -13.90820041	     -6.30270334	     -2.63692606	      2.47326313	     -8.23665592	     31.91919153	     -5.45825845	     39.58060012	    108.72737176	     70.34628736	     37.58077592	      7.81456255	     58.19900027	    110.68895856	     93.25639502
      0.01666670	      3.91157563	     -1.28319254	    -11.80194442	      1.02110065	      0.94869872	      0.37831417	     -4.19904432	      6.86892683	      1.22217549	      9.76280305	      0.17039306	      9.07399311	     -3.15157818	     -6.62874517	     22.33845222	     -5.12022871	      2.67410041	     26.98843570	      0.47103706	      1.23940309	     -9.95006387	     -6.62874517	     -3.79351521	      5.66107446	     -5.00808744	     32.45707444	     -8.17926009	     38.93640178	    111.64040279	     85.27449521	     39.22115719	      7.14351540	     58.81676663	    114.08468682	    100.91571535
      0.03333330	      4.58420266	     -1.23376112	    -13.49273333	      1.01994295	      0.94878109	      0.37998245	     -4.57635262	      6.61660866	      2.21566750	     10.51153301	      0.18346086	      9.07210877	     -3.75399875	     -6.66203460	     21.05995519	     -5.92213633	      0.37827857	     24.48850904	      0.42740511	     -0.54290942	     -8.28150266	     -6.66203460	     -4.47205312	      5.89302906	     -3.64817537	     34.14806731	     -7.21801884	     39.33225184	    111.41479700	     86.23881678	     40.60334671	      6.81634573	     58.88378047	    114.62008392	    101.60578769
      0.05000000	      4.40737401	     -0.67544214	    -13.86896511	      1.01985186	      0.94515453	      0.38055105	     -4.11957641	      6.08748682	      1.98101540	     10.92293575	      0.19064119	      9.98279727	     -3.28981350	     -6.68663329	     20.96580991	     -5.71839786	     -0.16337357	     22.55594229	      0.39367546	     -0.24088643	     -7.55418219	     -6.68663329	     -3.83683245	      5.68042382	     -3.45835766	     34.46105412	     -6.28542823	     39.87926021	    110.39158531	     87.14508581	     41.00149324	      6.38753202	     58.45543078	    114.98427495	    101.94445059
      0.06666670	      4.41271714	     -0.30250046	    -14.11960787	      1.01936856	      0.94509327	      0.38078117	     -3.88552269	      5.78409881	      1.76575977	     11.41542114	      0.19923668	     10.28242109	     -3.22946682	     -6.85317320	     20.67094427	     -5.38189644	     -0.52786364	     21.50952280	      0.37541199	      0.21422341	     -6.99212955	     -6.85317320	     -3.34633003	      5.74661363	     -4.58044523	     35.01238696	     -4.80207017	     41.56735190	    108.51333268	     90.42342697	     40.46822655	      5.45896308	     56.43998171	    115.80498530	    102.38185696
      0.08333330	      4.35243788	      0.11942840	    -14.18297795	      1.01881384	      0.94067845	      0.38111506	     -3.41050468	      5.49602914	      1.70310603	     12.19361806	      0.21281878	     10.46555894	     -3.60997789	     -6.99971228	     20.78946494	     -4.98346994	     -0.75413987	     21.35626226	      0.37273709	      0.31567797	     -6.65935354	     -6.99971228	     -2.94578936	      5.44816748	     -5.89031197	     34.09144860	     -2.73595915	     47.69836252	    114.24176058	     91.39067430	     40.52121366	      5.28146435	     54.99669318	    115.64450173	    100.68311802
